# xmcd database file
#
# Track frame offsets:
# 150
# 13278
# 30540
# 40073
# 57961
# 81375
# 102192
# 118155
# 133998
# 151978
#
# Disc length: 2162 seconds
#
# Revision: 0
# Processed by: cddbd v1.5.2PL0 Copyright (c) Steve Scherf et al.
# Submitted via: CD-Runner 2010.30
#
DISCID=8408700a
DTITLE=Keith Hallett - Bear With Me
DYEAR=2009
DGENRE=Blues
TTITLE0=She's The One
TTITLE1=Preaching Blues
TTITLE2=Traveling Riverside Blues
TTITLE3=Bear With Me
TTITLE4=Sweet little Thing
TTITLE5=What Can I Do
TTITLE6=On My Way Back Down
TTITLE7=Crazy About My Baby
TTITLE8=Rambling On My Mind
TTITLE9=Four Till Late
EXTD=
EXTT0=
EXTT1=
EXTT2=
EXTT3=
EXTT4=
EXTT5=
EXTT6=
EXTT7=
EXTT8=
EXTT9=
PLAYORDER=
